<svg width="24" height="18" viewBox="0 0 24 18" fill="none" xmlns="http://www.w3.org/2000/svg">
<path d="M2.66667 0.333332C1.95942 0.333332 1.28115 0.614284 0.781049 1.11438C0.280952 1.61448 0 2.29275 0 3L0 15C0 15.7072 0.280952 16.3855 0.781049 16.8856C1.28115 17.3857 1.95942 17.6667 2.66667 17.6667H8V0.333332H2.66667Z" fill="#009A49"/>
<path d="M8 0.333332H16V17.6667H8V0.333332Z" fill="#EEEEEE"/>
<path d="M21.3333 0.333332H16V17.6667H21.3333C22.0406 17.6667 22.7189 17.3857 23.219 16.8856C23.719 16.3855 24 15.7072 24 15V3C24 2.29275 23.719 1.61448 23.219 1.11438C22.7189 0.614284 22.0406 0.333332 21.3333 0.333332Z" fill="#009A49"/>
</svg>
